<?xml version="1.0" encoding="utf-8"?>
<!-- Generator: Adobe Illustrator 25.2.0, SVG Export Plug-In . SVG Version: 6.00 Build 0)  -->
<svg version="1.1" xmlns="http://www.w3.org/2000/svg" xmlns:xlink="http://www.w3.org/1999/xlink" x="0px" y="0px"
	 viewBox="0 0 595.28 396.85" style="enable-background:new 0 0 595.28 396.85;" xml:space="preserve">
<style type="text/css">
	.st0{fill:#306F74;}
	.st1{fill:#FFFFFF;}
	.st2{fill:#6F6E65;}
	.st3{fill:#9B9165;}
	.st4{opacity:0.5;}
	.st5{display:none;fill:#312783;}
</style>
<g id="STRUCTURE">
	<g id="REPERES">
	</g>
	<g id="ZONE_IMAGE">
		<g id="TITRE_1_">
			<g>
				<g>
					<polygon class="st0" points="233.65,110.17 239.89,105.46 239.89,106.11 239.89,106.77 239.89,106.78 232.87,112.08 
						232.87,110.76 232.87,101.53 232.87,100.21 232.87,95.01 232.87,93.7 233.65,93.1 233.65,94.42 233.65,94.83 233.65,95.9 
						233.65,99.63 233.65,100.94 					"/>
				</g>
			</g>
			<g>
				<g>
					<polygon class="st0" points="246.13,83.67 246.13,84.33 246.13,84.99 246.13,85.39 246.13,86.46 246.13,90.19 246.13,91.5 
						246.13,100.73 246.13,101.39 246.13,102.05 245.36,102.65 245.36,101.99 245.36,101.32 245.36,92.09 245.35,90.78 
						245.35,85.58 245.35,84.92 245.35,84.26 					"/>
				</g>
			</g>
			<g>
				<g>
					<polygon class="st0" points="239.96,88.41 239.96,89.06 239.96,89.72 239.96,90.13 239.96,91.2 239.96,94.93 239.96,96.24 
						239.18,96.83 239.18,95.52 239.18,90.32 239.18,89.65 239.18,89 					"/>
				</g>
			</g>
			<g>
				<g>
					<polygon class="st0" points="258.62,74.23 258.62,74.89 258.62,75.55 258.62,75.95 258.62,77.02 258.62,80.75 258.62,82.07 
						258.62,91.3 258.62,91.96 258.62,92.61 258.08,93.02 252.37,81.74 252.37,85.47 252.37,86.79 252.38,96.02 252.38,96.68 
						252.38,97.34 251.59,97.93 251.59,97.27 251.59,96.61 251.59,87.38 251.59,86.06 251.59,80.86 251.59,80.2 251.59,79.54 
						252.13,79.13 257.84,90.41 257.84,82.66 257.84,81.34 257.84,76.14 257.84,74.82 					"/>
				</g>
			</g>
			<g>
				<g>
					<path class="st0" d="M261.26,72.24L261.26,72.24l-0.78,0.59l6.72,13.3l0.54-0.41v-0.66v-0.66v-9.23v-1.32v-3.73v-1.06v-0.41V68
						v-0.66L261.26,72.24z M266.96,74.45v1.32v7.76l-5.22-10.33l5.22-3.95V74.45z"/>
				</g>
			</g>
			<g>
				<g>
					<polygon class="st0" points="280.47,57.72 280.47,58.37 280.47,59.03 274.23,63.75 274.23,64.16 274.23,65.23 274.23,68.95 
						280.47,64.23 280.47,65.56 274.23,70.27 274.23,79.5 280.47,74.78 280.47,75.44 280.47,76.1 280.47,76.1 273.45,81.41 
						273.45,80.75 273.45,80.09 273.45,70.86 273.45,69.54 273.45,64.34 273.45,63.68 273.45,63.03 					"/>
				</g>
			</g>
			<g>
				<g>
					<polygon class="st0" points="292.95,48.28 292.95,48.94 292.95,49.6 286.71,54.32 286.71,54.72 286.71,55.79 286.71,59.51 
						286.71,60.83 286.71,70.07 292.95,65.35 292.95,66.01 292.95,66.67 292.95,66.67 285.93,71.97 285.93,71.32 285.93,70.66 
						285.93,61.43 285.93,60.11 285.93,54.91 285.93,54.25 285.93,53.59 					"/>
				</g>
			</g>
			<g>
				<g>
					<polygon class="st0" points="299.2,43.56 299.2,44.22 299.2,44.88 299.2,45.29 299.2,46.36 299.2,50.08 299.2,51.4 
						299.2,60.63 299.2,61.29 299.2,61.95 298.41,62.53 298.41,61.88 298.41,61.22 298.41,51.99 298.41,50.67 298.41,45.47 
						298.41,44.81 298.41,44.15 					"/>
				</g>
			</g>
			<g>
				<g>
					<polygon class="st0" points="311.68,34.13 311.68,34.78 311.68,35.44 305.44,40.16 305.44,40.57 305.44,41.63 305.44,45.36 
						311.68,40.64 311.68,41.96 311.68,51.19 311.68,51.85 311.68,52.51 311.68,52.51 304.66,57.82 304.66,57.16 304.66,56.5 
						310.9,51.78 310.9,50.31 310.9,42.55 304.66,47.27 304.65,45.95 304.65,40.75 304.65,40.09 304.65,39.43 					"/>
				</g>
			</g>
			<g>
				<g>
					<polygon class="st0" points="324.17,24.69 324.17,25.34 324.17,26.01 317.92,30.72 317.92,31.13 317.92,32.2 317.92,35.92 
						324.17,31.21 324.17,32.52 317.92,37.24 317.92,46.47 324.17,41.76 324.17,42.42 324.17,43.07 324.17,43.07 317.14,48.38 
						317.14,47.72 317.14,47.06 317.14,37.83 317.14,36.51 317.14,31.31 317.14,30.65 317.14,30 					"/>
				</g>
			</g>
		</g>
		<g id="PLEINS_1_">
			<polygon class="st0" points="321.58,60.51 321.58,122.23 299.02,77.6 			"/>
			<polygon class="st0" points="320.37,141.52 297.78,158.58 297.78,96.85 			"/>
			<polygon class="st0" points="289.85,84.5 289.85,164.6 266.02,182.57 266.02,102.51 			"/>
			<polygon class="st0" points="258.09,108.5 258.09,188.6 234.29,206.57 234.29,126.51 238.48,123.33 238.48,156.49 242.46,153.5 
				242.46,153.43 246.41,150.47 246.41,117.34 			"/>
			<polygon class="st0" points="258.12,195.32 258.12,257.08 235.53,212.38 239.81,209.16 246.74,203.9 			"/>
			<polygon class="st0" points="289.85,171.32 289.85,197.73 266.02,215.74 266.02,189.29 			"/>
			<polygon class="st0" points="289.85,204.45 289.85,251.39 266.05,269.39 266.05,222.46 			"/>
			<polygon class="st0" points="352.1,204.34 297.78,245.4 297.78,165.3 322.82,146.38 			"/>
			<polygon class="st0" points="353.34,243.28 353.34,290.18 329.54,308.18 329.54,261.25 			"/>
			<polygon class="st0" points="353.34,210.11 353.34,236.56 329.54,254.53 329.51,228.12 			"/>
			<polygon class="st0" points="321.61,234.11 321.61,314.17 313.65,320.2 313.65,266.55 309.7,269.54 281.92,290.54 281.92,264.1 
							"/>
			<polygon class="st0" points="305.75,326.19 266.05,356.18 266.05,276.08 273.99,270.09 273.99,303.25 277.97,300.26 
				305.72,279.26 			"/>
		</g>
		<path id="LIGNES_1_" class="st1" d="M329.51,137.94V47.79l-99.2,74.99l0.03,86.82v3.32l1.24,2.45l26.54,52.52l3.95,7.82v90.18
			l99.2-74.99v-90.15L329.51,137.94z M321.58,60.51l3.95-2.99l0.03,72.57l-3.98-7.85L299.02,77.6l-0.03-0.04L321.58,60.51z
			 M297.78,86.04l23.8,47.04l2.74,5.44l-3.95,3l-22.59,17.06V86.04z M297.78,165.3l25.04-18.92l3.95-3l29.31,57.93l-3.98,3.03
			l-54.32,41.06V165.3z M266.02,102.51l23.83-18.01l3.95-2.99v80.1l-3.95,2.99l-23.83,17.97V102.51z M262.07,264.9l-3.95-7.82
			l-22.59-44.71l4.28-3.21l6.93-5.26l15.33-11.62V264.9z M262.07,185.57l-3.98,2.99v0.04l-23.8,17.97v-80.1l4.19-3.14l3.95-3v33.13
			l0.03-0.04l3.95-2.96v-33.13l11.68-8.84l3.98-3V185.57z M266.02,189.29l27.78-21v26.44l-3.95,2.99v0.04l-23.83,17.97V189.29z
			 M293.8,201.46v46.94l-3.95,3l-23.8,18.01v-46.94l23.8-18.01L293.8,201.46z M309.7,323.2l-3.95,3l-39.69,29.99v-80.1l7.93-5.99
			l3.95-2.99l0.03,26.44v6.72l27.75-21l3.98-3V323.2z M325.56,311.18l-3.95,3v0.04l-7.96,5.99v-53.66l-3.95,2.99l-27.78,21V264.1
			l39.69-29.99l3.95-2.99V311.18z M329.51,228.08l23.83-17.97l3.95-2.99v26.44l-3.95,3l-23.8,17.97l-0.03-26.41V228.08z
			 M357.32,287.18l-3.98,2.99v0.04l-23.8,17.97v-46.94l23.8-17.97l3.98-3.03V287.18z"/>
		<g id="RELIEFS_1_">
			<polygon class="st0" points="277.97,293.54 277.97,300.26 273.99,303.25 273.99,270.09 277.94,267.09 			"/>
			<polygon class="st0" points="309.7,276.26 309.7,323.2 305.75,326.19 305.72,279.26 			"/>
			<polygon class="st0" points="325.56,231.11 325.56,311.18 321.61,314.17 321.61,234.11 			"/>
			<polygon class="st0" points="357.32,240.25 357.32,287.18 353.34,290.18 353.34,243.28 			"/>
			<polygon class="st0" points="357.29,207.12 357.29,233.56 353.34,236.56 353.34,210.11 			"/>
			<polygon class="st0" points="293.8,201.46 293.8,248.39 289.85,251.39 289.85,204.45 			"/>
			<polygon class="st0" points="262.07,192.29 262.07,264.9 258.12,257.08 258.12,195.32 246.74,203.9 			"/>
			<polygon class="st0" points="293.8,168.29 293.8,194.74 289.85,197.73 289.85,171.32 266.02,189.29 			"/>
			<polygon class="st0" points="356.09,201.31 352.1,204.34 322.82,146.38 326.77,143.38 			"/>
			<polygon class="st0" points="324.33,138.52 320.37,141.52 297.78,96.85 297.78,86.04 321.58,133.08 			"/>
			<polygon class="st0" points="325.56,130.09 321.58,122.23 321.58,60.51 325.53,57.51 			"/>
			<polygon class="st0" points="293.8,81.51 293.8,161.61 289.85,164.6 289.85,84.5 			"/>
			<polygon class="st0" points="262.07,105.5 262.07,185.57 258.09,188.56 258.09,108.5 			"/>
			<polygon class="st0" points="242.46,153.43 242.46,153.5 238.48,156.49 238.48,123.33 242.43,120.33 242.43,153.46 			"/>
		</g>
		<g id="TITRE_2_">
			<g>
				<g>
					<polygon class="st2" points="460.15,109.97 466.4,105.26 466.4,105.91 466.4,106.57 466.4,106.57 459.38,111.88 459.37,110.56 
						459.37,101.33 459.37,100.01 459.37,94.81 459.37,93.5 460.15,92.9 460.15,94.22 460.15,94.63 460.15,95.7 460.15,99.43 
						460.15,100.74 					"/>
				</g>
			</g>
			<g>
				<g>
					<polygon class="st2" points="472.64,83.47 472.64,84.13 472.64,84.78 472.64,85.19 472.64,86.26 472.64,89.99 472.64,91.3 
						472.64,100.53 472.64,101.19 472.64,101.85 471.86,102.44 471.86,101.78 471.86,101.12 471.86,91.89 471.86,90.58 
						471.86,85.38 471.86,84.72 471.86,84.06 					"/>
				</g>
			</g>
			<g>
				<g>
					<polygon class="st2" points="466.47,88.21 466.47,88.86 466.46,89.52 466.46,89.93 466.47,91 466.47,94.73 466.47,96.04 
						465.69,96.63 465.69,95.32 465.69,90.12 465.69,89.45 465.69,88.8 					"/>
				</g>
			</g>
			<g>
				<g>
					<polygon class="st2" points="485.13,74.03 485.13,74.69 485.13,75.35 485.13,75.75 485.13,76.82 485.13,80.55 485.13,81.87 
						485.13,91.1 485.13,91.76 485.13,92.41 484.59,92.82 478.88,81.54 478.88,85.27 478.88,86.59 478.89,95.82 478.89,96.48 
						478.89,97.14 478.1,97.73 478.1,97.07 478.1,96.41 478.1,87.18 478.1,85.86 478.1,80.66 478.1,80 478.1,79.34 478.64,78.93 
						484.35,90.21 484.35,82.46 484.35,81.14 484.35,75.94 484.35,74.62 					"/>
				</g>
			</g>
			<g>
				<g>
					<path class="st2" d="M487.77,72.03L487.77,72.03l-0.78,0.59l6.72,13.3l0.54-0.41v-0.66V84.2v-9.23v-1.32v-3.73v-1.06v-0.41
						V67.8v-0.66L487.77,72.03z M493.47,74.25v1.32v7.76l-5.22-10.33l5.22-3.95V74.25z"/>
				</g>
			</g>
			<g>
				<g>
					<polygon class="st2" points="506.97,57.52 506.97,58.17 506.97,58.83 500.73,63.55 500.73,63.96 500.73,65.03 500.73,68.75 
						506.97,64.03 506.97,65.36 500.73,70.07 500.73,79.3 506.97,74.58 506.97,75.24 506.97,75.9 506.97,75.9 499.96,81.21 
						499.96,80.55 499.96,79.89 499.96,70.66 499.96,69.34 499.96,64.14 499.96,63.48 499.96,62.82 					"/>
				</g>
			</g>
			<g>
				<g>
					<polygon class="st2" points="519.46,48.08 519.46,48.74 519.46,49.4 513.22,54.12 513.22,54.52 513.22,55.59 513.22,59.31 
						513.22,60.63 513.22,69.87 519.46,65.15 519.46,65.81 519.46,66.46 519.46,66.47 512.44,71.77 512.44,71.11 512.44,70.45 
						512.44,61.23 512.44,59.91 512.44,54.71 512.44,54.04 512.44,53.39 					"/>
				</g>
			</g>
			<g>
				<g>
					<polygon class="st2" points="525.7,43.36 525.7,44.02 525.7,44.68 525.7,45.08 525.7,46.16 525.7,49.88 525.7,51.2 
						525.7,60.43 525.7,61.08 525.7,61.75 524.92,62.33 524.92,61.68 524.92,61.02 524.92,51.79 524.92,50.47 524.92,45.27 
						524.92,44.61 524.92,43.95 					"/>
				</g>
			</g>
			<g>
				<g>
					<polygon class="st2" points="538.19,33.93 538.19,34.58 538.19,35.24 531.95,39.96 531.95,40.37 531.95,41.43 531.95,45.16 
						538.19,40.44 538.19,41.76 538.19,50.99 538.19,51.65 538.19,52.31 538.19,52.31 531.17,57.62 531.17,56.96 531.17,56.3 
						537.41,51.58 537.41,50.11 537.41,42.35 531.17,47.07 531.16,45.75 531.16,40.55 531.16,39.89 531.16,39.23 					"/>
				</g>
			</g>
			<g>
				<g>
					<polygon class="st2" points="550.67,24.49 550.67,25.14 550.67,25.81 544.43,30.52 544.43,30.93 544.43,32 544.43,35.72 
						550.67,31.01 550.67,32.32 544.43,37.04 544.43,46.27 550.67,41.56 550.67,42.22 550.67,42.87 550.67,42.87 543.65,48.18 
						543.65,47.52 543.65,46.86 543.65,37.63 543.65,36.31 543.65,31.11 543.65,30.45 543.65,29.8 					"/>
				</g>
			</g>
		</g>
		<g id="PLEINS_2_">
			<polygon class="st2" points="548.09,60.3 548.09,122.03 525.53,77.4 			"/>
			<polygon class="st2" points="546.88,141.32 524.29,158.38 524.29,96.65 			"/>
			<polygon class="st2" points="516.36,84.3 516.36,164.4 492.53,182.37 492.53,102.31 			"/>
			<polygon class="st2" points="484.6,108.3 484.6,188.4 460.8,206.37 460.8,126.31 464.99,123.13 464.99,156.29 468.97,153.3 
				468.97,153.22 472.92,150.27 472.92,117.14 			"/>
			<polygon class="st2" points="484.63,195.12 484.63,256.88 462.04,212.18 466.32,208.96 473.25,203.7 			"/>
			<polygon class="st2" points="516.36,171.12 516.36,197.53 492.53,215.54 492.53,189.09 			"/>
			<polygon class="st2" points="516.36,204.25 516.36,251.19 492.56,269.19 492.56,222.26 			"/>
			<polygon class="st2" points="578.61,204.14 524.29,245.2 524.29,165.1 549.33,146.18 			"/>
			<polygon class="st2" points="579.85,243.08 579.85,289.98 556.05,307.98 556.05,261.05 			"/>
			<polygon class="st2" points="579.85,209.91 579.85,236.36 556.05,254.33 556.02,227.92 			"/>
			<polygon class="st2" points="548.12,233.91 548.12,313.97 540.16,320 540.16,266.34 536.21,269.34 508.43,290.34 508.43,263.9 
							"/>
			<polygon class="st2" points="532.25,325.99 492.56,355.98 492.56,275.88 500.5,269.89 500.5,303.05 504.48,300.06 532.23,279.06 
							"/>
		</g>
		<path id="LIGNES_2_" class="st1" d="M556.02,137.74V47.59l-99.2,74.99l0.03,86.82v3.32l1.24,2.45l26.54,52.52l3.95,7.82v90.18
			l99.2-74.99v-90.15L556.02,137.74z M548.09,60.3l3.95-2.99l0.03,72.57l-3.98-7.85L525.53,77.4l-0.03-0.04L548.09,60.3z
			 M524.29,85.84l23.8,47.04l2.74,5.44l-3.95,3l-22.59,17.06V85.84z M524.29,165.1l25.04-18.92l3.95-3l29.31,57.93l-3.98,3.03
			l-54.32,41.06V165.1z M492.53,102.31l23.83-18.01l3.95-2.99v80.1l-3.95,2.99l-23.83,17.97V102.31z M488.58,264.7l-3.95-7.82
			l-22.59-44.71l4.28-3.21l6.93-5.26l15.33-11.62V264.7z M488.58,185.37l-3.98,2.99v0.04l-23.8,17.97v-80.1l4.19-3.14l3.95-3v33.13
			l0.03-0.04l3.95-2.96v-33.13l11.68-8.84l3.98-3V185.37z M492.53,189.09l27.78-21v26.44l-3.95,2.99v0.04l-23.83,17.97V189.09z
			 M520.31,201.26v46.94l-3.95,3l-23.8,18.01v-46.94l23.8-18.01L520.31,201.26z M536.21,322.99l-3.95,3l-39.69,29.99v-80.1
			l7.93-5.99l3.95-2.99l0.03,26.44v6.72l27.75-21l3.98-3V322.99z M552.07,310.98l-3.95,3v0.04l-7.96,5.99v-53.66l-3.95,2.99
			l-27.78,21V263.9l39.69-29.99l3.95-2.99V310.98z M556.02,227.88l23.83-17.97l3.95-2.99v26.44l-3.95,3l-23.8,17.97l-0.03-26.41
			V227.88z M583.83,286.98l-3.98,2.99v0.04l-23.8,17.97v-46.94l23.8-17.97l3.98-3.03V286.98z"/>
		<g id="RELIEFS_2_">
			<polygon class="st2" points="504.48,293.34 504.48,300.06 500.5,303.05 500.5,269.89 504.45,266.89 			"/>
			<polygon class="st2" points="536.21,276.06 536.21,322.99 532.25,325.99 532.23,279.06 			"/>
			<polygon class="st2" points="552.07,230.91 552.07,310.98 548.12,313.97 548.12,233.91 			"/>
			<polygon class="st2" points="583.83,240.05 583.83,286.98 579.85,289.98 579.85,243.08 			"/>
			<polygon class="st2" points="583.8,206.92 583.8,233.36 579.85,236.36 579.85,209.91 			"/>
			<polygon class="st2" points="520.31,201.26 520.31,248.19 516.36,251.19 516.36,204.25 			"/>
			<polygon class="st2" points="488.58,192.09 488.58,264.7 484.63,256.88 484.63,195.12 473.25,203.7 			"/>
			<polygon class="st2" points="520.31,168.09 520.31,194.54 516.36,197.53 516.36,171.12 492.53,189.09 			"/>
			<polygon class="st2" points="582.59,201.11 578.61,204.14 549.33,146.18 553.28,143.18 			"/>
			<polygon class="st2" points="550.83,138.32 546.88,141.32 524.29,96.65 524.29,85.84 548.09,132.88 			"/>
			<polygon class="st2" points="552.07,129.88 548.09,122.03 548.09,60.3 552.04,57.31 			"/>
			<polygon class="st2" points="520.31,81.31 520.31,161.41 516.36,164.4 516.36,84.3 			"/>
			<polygon class="st2" points="488.58,105.3 488.58,185.37 484.6,188.36 484.6,108.3 			"/>
			<polygon class="st2" points="468.97,153.22 468.97,153.3 464.99,156.29 464.99,123.13 468.94,120.13 468.94,153.26 			"/>
		</g>
	</g>
	<g id="LOGO">
		<g id="TITRE_3_">
			<g>
				<g>
					<polygon class="st3" points="14.69,111.93 20.93,107.22 20.93,107.87 20.93,108.53 20.93,108.53 13.91,113.84 13.91,112.52 
						13.91,103.29 13.91,101.97 13.91,96.77 13.91,95.45 14.69,94.86 14.69,96.18 14.69,96.59 14.69,97.66 14.69,101.38 
						14.69,102.7 					"/>
				</g>
			</g>
			<g>
				<g>
					<polygon class="st3" points="27.17,85.43 27.17,86.09 27.17,86.74 27.17,87.15 27.17,88.22 27.17,91.95 27.17,93.26 
						27.17,102.49 27.17,103.15 27.17,103.81 26.4,104.4 26.4,103.74 26.4,103.08 26.4,93.85 26.39,92.54 26.39,87.34 26.39,86.68 
						26.39,86.02 					"/>
				</g>
			</g>
			<g>
				<g>
					<polygon class="st3" points="21,90.17 21,90.82 21,91.48 21,91.89 21,92.96 21,96.69 21,98 20.22,98.59 20.22,97.28 
						20.22,92.08 20.22,91.41 20.22,90.76 					"/>
				</g>
			</g>
			<g>
				<g>
					<polygon class="st3" points="39.66,75.99 39.66,76.65 39.66,77.31 39.66,77.71 39.66,78.78 39.66,82.51 39.66,83.83 
						39.66,93.06 39.66,93.72 39.66,94.37 39.12,94.78 33.41,83.5 33.41,87.23 33.41,88.55 33.42,97.78 33.42,98.44 33.42,99.1 
						32.63,99.69 32.63,99.03 32.63,98.37 32.63,89.14 32.63,87.82 32.63,82.62 32.63,81.96 32.63,81.3 33.17,80.89 38.88,92.17 
						38.88,84.42 38.88,83.1 38.88,77.9 38.88,76.58 					"/>
				</g>
			</g>
			<g>
				<g>
					<path class="st3" d="M42.3,73.99L42.3,73.99l-0.78,0.59l6.72,13.3l0.54-0.41v-0.66v-0.66v-9.23v-1.32v-3.73v-1.06v-0.41v-0.66
						v-0.66L42.3,73.99z M48,76.21v1.32v7.76l-5.22-10.33L48,71.01V76.21z"/>
				</g>
			</g>
			<g>
				<g>
					<polygon class="st3" points="61.51,59.48 61.51,60.13 61.51,60.79 55.27,65.51 55.27,65.92 55.27,66.99 55.27,70.71 
						61.51,65.99 61.51,67.32 55.27,72.03 55.27,81.26 61.51,76.54 61.51,77.2 61.51,77.86 61.51,77.86 54.49,83.17 54.49,82.51 
						54.49,81.85 54.49,72.62 54.49,71.3 54.49,66.1 54.49,65.44 54.49,64.78 					"/>
				</g>
			</g>
			<g>
				<g>
					<polygon class="st3" points="73.99,50.04 73.99,50.7 73.99,51.36 67.75,56.08 67.75,56.48 67.75,57.55 67.75,61.27 
						67.75,62.59 67.75,71.83 73.99,67.11 73.99,67.77 73.99,68.42 73.99,68.43 66.97,73.73 66.97,73.07 66.97,72.41 66.97,63.18 
						66.97,61.87 66.97,56.67 66.97,56 66.97,55.35 					"/>
				</g>
			</g>
			<g>
				<g>
					<polygon class="st3" points="80.24,45.32 80.24,45.98 80.24,46.64 80.24,47.04 80.24,48.11 80.24,51.84 80.24,53.16 
						80.24,62.39 80.24,63.04 80.24,63.71 79.45,64.29 79.45,63.64 79.45,62.98 79.45,53.75 79.45,52.43 79.45,47.23 79.45,46.57 
						79.45,45.91 					"/>
				</g>
			</g>
			<g>
				<g>
					<polygon class="st3" points="92.72,35.89 92.72,36.54 92.72,37.2 86.48,41.92 86.48,42.33 86.48,43.39 86.48,47.12 92.72,42.4 
						92.72,43.72 92.72,52.95 92.72,53.61 92.72,54.27 92.72,54.27 85.7,59.58 85.7,58.92 85.7,58.26 91.94,53.54 91.94,52.07 
						91.94,44.31 85.7,49.03 85.69,47.71 85.69,42.51 85.69,41.85 85.69,41.19 					"/>
				</g>
			</g>
			<g>
				<g>
					<polygon class="st3" points="105.21,26.45 105.21,27.1 105.21,27.77 98.96,32.48 98.96,32.89 98.96,33.96 98.96,37.68 
						105.21,32.97 105.21,34.28 98.96,39 98.96,48.23 105.21,43.52 105.21,44.18 105.21,44.83 105.21,44.83 98.18,50.14 
						98.18,49.48 98.18,48.82 98.18,39.59 98.18,38.27 98.18,33.07 98.18,32.41 98.18,31.76 					"/>
				</g>
			</g>
		</g>
		<g id="PLEINS_3_">
			<polygon class="st3" points="102.62,62.26 102.62,123.99 80.06,79.36 			"/>
			<polygon class="st3" points="101.41,143.28 78.82,160.34 78.82,98.61 			"/>
			<polygon class="st3" points="70.89,86.26 70.89,166.36 47.06,184.33 47.06,104.27 			"/>
			<polygon class="st3" points="39.13,110.26 39.13,190.36 15.33,208.33 15.33,128.27 19.52,125.09 19.52,158.25 23.5,155.26 
				23.5,155.18 27.45,152.23 27.45,119.1 			"/>
			<polygon class="st3" points="39.16,197.08 39.16,258.84 16.57,214.14 20.85,210.92 27.78,205.66 			"/>
			<polygon class="st3" points="70.89,173.08 70.89,199.49 47.06,217.5 47.06,191.05 			"/>
			<polygon class="st3" points="70.89,206.21 70.89,253.15 47.09,271.15 47.09,224.22 			"/>
			<polygon class="st3" points="133.14,206.1 78.82,247.16 78.82,167.06 103.86,148.14 			"/>
			<polygon class="st3" points="134.38,245.04 134.38,291.94 110.58,309.94 110.58,263.01 			"/>
			<polygon class="st3" points="134.38,211.87 134.38,238.32 110.58,256.29 110.55,229.88 			"/>
			<polygon class="st3" points="102.65,235.87 102.65,315.93 94.69,321.96 94.69,268.3 90.74,271.3 62.96,292.3 62.96,265.86 			"/>
			<polygon class="st3" points="86.79,327.95 47.09,357.94 47.09,277.84 55.03,271.85 55.03,305.01 59.01,302.02 86.76,281.02 			
				"/>
		</g>
		<path id="LIGNES_3_" class="st1" d="M110.55,139.7V49.55l-99.2,74.99l0.03,86.82v3.32l1.24,2.45l26.54,52.52l3.95,7.82v90.18
			l99.2-74.99v-90.15L110.55,139.7z M102.62,62.26l3.95-2.99l0.03,72.57l-3.98-7.85L80.06,79.36l-0.03-0.04L102.62,62.26z
			 M78.82,87.8l23.8,47.04l2.74,5.44l-3.95,3l-22.59,17.06V87.8z M78.82,167.06l25.04-18.92l3.95-3l29.31,57.93l-3.98,3.03
			l-54.32,41.06V167.06z M47.06,104.27l23.83-18.01l3.95-2.99v80.1l-3.95,2.99l-23.83,17.97V104.27z M43.11,266.66l-3.95-7.82
			l-22.59-44.71l4.28-3.21l6.93-5.26l15.33-11.62V266.66z M43.11,187.33l-3.98,2.99v0.04l-23.8,17.97v-80.1l4.19-3.14l3.95-3v33.13
			l0.03-0.04l3.95-2.96V119.1l11.68-8.84l3.98-3V187.33z M47.06,191.05l27.78-21v26.44l-3.95,2.99v0.04L47.06,217.5V191.05z
			 M74.84,203.22v46.94l-3.95,3l-23.8,18.01v-46.94l23.8-18.01L74.84,203.22z M90.74,324.95l-3.95,3l-39.69,29.99v-80.1l7.93-5.99
			l3.95-2.99l0.03,26.44v6.72l27.75-21l3.98-3V324.95z M106.6,312.94l-3.95,3v0.04l-7.96,5.99V268.3l-3.95,2.99l-27.78,21v-26.44
			l39.69-29.99l3.95-2.99V312.94z M110.55,229.84l23.83-17.97l3.95-2.99v26.44l-3.95,3l-23.8,17.97l-0.03-26.41V229.84z
			 M138.36,288.94l-3.98,2.99v0.04l-23.8,17.97v-46.94l23.8-17.97l3.98-3.03V288.94z"/>
		<g id="RELIEFS_3_">
			<polygon class="st3" points="59.01,295.3 59.01,302.02 55.03,305.01 55.03,271.85 58.98,268.85 			"/>
			<polygon class="st3" points="90.74,278.02 90.74,324.95 86.79,327.95 86.76,281.02 			"/>
			<polygon class="st3" points="106.6,232.87 106.6,312.94 102.65,315.93 102.65,235.87 			"/>
			<polygon class="st3" points="138.36,242.01 138.36,288.94 134.38,291.94 134.38,245.04 			"/>
			<polygon class="st3" points="138.33,208.88 138.33,235.32 134.38,238.32 134.38,211.87 			"/>
			<polygon class="st3" points="74.84,203.22 74.84,250.15 70.89,253.15 70.89,206.21 			"/>
			<polygon class="st3" points="43.11,194.05 43.11,266.66 39.16,258.84 39.16,197.08 27.78,205.66 			"/>
			<polygon class="st3" points="74.84,170.05 74.84,196.5 70.89,199.49 70.89,173.08 47.06,191.05 			"/>
			<polygon class="st3" points="137.13,203.07 133.14,206.1 103.86,148.14 107.81,145.14 			"/>
			<polygon class="st3" points="105.37,140.28 101.41,143.28 78.82,98.61 78.82,87.8 102.62,134.84 			"/>
			<polygon class="st3" points="106.6,131.84 102.62,123.99 102.62,62.26 106.57,59.27 			"/>
			<polygon class="st3" points="74.84,83.27 74.84,163.37 70.89,166.36 70.89,86.26 			"/>
			<polygon class="st3" points="43.11,107.26 43.11,187.33 39.13,190.32 39.13,110.26 			"/>
			<polygon class="st3" points="23.5,155.18 23.5,155.26 19.52,158.25 19.52,125.09 23.47,122.09 23.47,155.22 			"/>
		</g>
		<g id="ATTENUATION" class="st4">
			<polygon class="st1" points="30.34,87.78 30.34,89.62 28.99,90.44 28.99,81.36 30.33,80.54 			"/>
			<polygon class="st1" points="41.1,83.05 41.1,95.9 39.76,96.72 39.75,83.87 			"/>
			<polygon class="st1" points="46.48,70.69 46.48,92.61 45.14,93.43 45.14,71.51 			"/>
			<polygon class="st1" points="57.25,73.19 57.25,86.04 55.9,86.86 55.9,74.02 			"/>
			<polygon class="st1" points="57.24,64.12 57.24,71.36 55.9,72.18 55.9,64.94 			"/>
			<polygon class="st1" points="35.71,62.57 35.71,75.42 34.37,76.24 34.37,63.39 			"/>
			<polygon class="st1" points="24.95,60.06 24.95,79.94 23.61,77.8 23.61,60.89 19.75,63.24 			"/>
			<polygon class="st1" points="35.71,53.49 35.71,60.73 34.37,61.55 34.37,54.32 26.29,59.24 			"/>
			<polygon class="st1" points="56.83,62.53 55.48,63.36 45.55,47.49 46.89,46.67 			"/>
			<polygon class="st1" points="46.06,45.34 44.72,46.16 37.06,33.93 37.06,30.97 45.13,43.85 			"/>
			<polygon class="st1" points="46.48,43.03 45.13,40.88 45.13,23.98 46.47,23.16 			"/>
			<polygon class="st1" points="35.71,29.73 35.71,51.66 34.37,52.48 34.37,30.55 			"/>
			<polygon class="st1" points="24.95,36.3 24.95,58.22 23.6,59.04 23.6,37.12 			"/>
			<polygon class="st1" points="18.3,49.42 18.3,49.44 16.95,50.26 16.95,41.18 18.29,40.36 18.29,49.43 			"/>
		</g>
	</g>
</g>
<g id="TEXTES">
	<g id="ZONE_TEXTE">
		<path class="st5" d="M67.71,0v396.85H212.6v-96.27l-9.12,5.6l-29.55,18.19l-97.11,59.77V207.65l42.59-26.21l84.07-51.74v0.01
			l1.58-0.97l7.54,12.25V0H67.71z M203.48,316.88v70.85H88.37L203.48,316.88z M76.82,9.13h74.45v25.02L94.09,69.33L76.82,79.96V9.13
			z M163.02,143.9l-38.76,23.85l-47.44,29.2V90.66l38.75-23.85l38.76-23.85l47.44,77.09L163.02,143.9z M203.48,105.43L160.4,35.4
			V9.13h43.08V105.43z M203.48,218.16l1.59-0.98l7.53,12.24v-16.91l-9.12,5.61V218.16z"/>
	</g>
	<g id="TYPE_BIERE">
	</g>
	<g id="_x25_">
	</g>
	<g id="EBC_IBU">
	</g>
</g>
</svg>
